<?xml version="1.0" standalone="no"?>
<!DOCTYPE svg PUBLIC "-//W3C//DTD SVG 20010904//EN"
 "http://www.w3.org/TR/2001/REC-SVG-20010904/DTD/svg10.dtd">
<svg version="1.0" xmlns="http://www.w3.org/2000/svg"
 width="100.000000pt" height="100.000000pt" viewBox="0 0 500.000000 500.000000"
 preserveAspectRatio="xMidYMid meet">

<g transform="translate(0.000000,500.000000) scale(0.100000,-0.100000)"
fill="#000000" stroke="none">
<path d="M2310 3040 l0 -70 620 0 621 0 -3 68 -3 67 -617 3 -618 2 0 -70z"/>
<path d="M1223 2756 c-63 -20 -99 -51 -127 -108 -90 -180 61 -363 263 -318 79
17 144 82 160 159 31 144 -58 265 -203 277 -28 2 -70 -2 -93 -10z m156 -112
c60 -50 60 -148 0 -198 -31 -26 -50 -31 -104 -27 -42 4 -63 17 -85 54 -37 61
-19 151 38 181 45 25 115 20 151 -10z"/>
<path d="M560 2546 l0 -216 50 0 50 0 0 59 0 59 70 4 c74 4 105 19 144 72 28
38 28 125 0 163 -45 60 -66 68 -195 72 l-119 3 0 -216z m206 116 c21 -13 36
-54 29 -79 -7 -28 -57 -53 -105 -53 l-30 0 0 70 0 70 48 0 c26 0 52 -4 58 -8z"/>
<path d="M1690 2754 c0 -4 30 -101 67 -216 l67 -209 49 3 50 3 46 132 c25 73
48 129 52 125 3 -4 26 -65 50 -135 l43 -128 50 3 49 3 68 210 c38 116 69 211
69 213 0 1 -24 2 -52 2 l-53 0 -40 -130 c-22 -71 -42 -130 -45 -130 -3 0 -25
59 -50 130 l-45 130 -47 0 -46 0 -30 -82 c-16 -46 -35 -101 -42 -123 -7 -22
-16 -44 -20 -48 -3 -4 -26 51 -49 123 l-42 130 -49 0 c-28 0 -50 -3 -50 -6z"/>
<path d="M2530 2545 l0 -215 145 0 145 0 0 40 0 40 -96 0 -95 0 3 48 3 47 83
3 82 3 0 39 0 40 -85 0 -85 0 0 45 0 45 95 0 95 0 0 40 0 40 -145 0 -145 0 0
-215z"/>
<path d="M3030 2545 l0 -215 50 0 50 0 0 65 0 65 33 0 c30 0 36 -6 70 -65 l38
-65 54 0 c30 0 55 2 55 5 0 2 -16 29 -35 60 -51 78 -51 81 -16 111 77 64 54
201 -39 238 -29 11 -73 16 -150 16 l-110 0 0 -215z m215 119 c38 -15 38 -93 0
-108 -9 -3 -39 -6 -66 -6 l-49 0 0 66 0 66 49 -6 c27 -3 57 -9 66 -12z"/>
<path d="M2512 2233 c2 -29 8 -48 16 -49 6 -1 37 -2 67 -3 l55 -1 0 -170 0
-170 50 0 50 0 0 170 0 170 70 0 70 0 0 50 0 50 -191 0 -190 0 3 -47z"/>
<path d="M3211 2258 c-5 -13 -43 -108 -85 -213 -42 -104 -76 -193 -76 -197 0
-5 23 -8 51 -8 47 0 51 2 64 34 17 41 29 46 110 46 69 0 90 -12 101 -56 6 -22
11 -24 61 -24 40 0 54 3 50 13 -3 6 -42 105 -87 220 l-82 207 -49 0 c-42 0
-51 -3 -58 -22z m89 -185 c14 -37 27 -71 29 -76 1 -4 -24 -7 -58 -6 -34 1 -61
4 -61 5 0 12 54 144 59 144 3 0 17 -30 31 -67z"/>
<path d="M3680 2060 l0 -220 145 0 145 0 0 45 0 45 -95 0 -95 0 0 175 0 175
-50 0 -50 0 0 -220z"/>
<path d="M940 1995 l0 -65 615 0 615 0 0 65 0 65 -615 0 -615 0 0 -65z"/>
</g>
</svg>
